<?xml version="1.0" encoding="UTF-8"?>
<svg width="836px" height="1479px" viewBox="0 0 836 1479" version="1.1" xmlns="http://www.w3.org/2000/svg" xmlns:xlink="http://www.w3.org/1999/xlink">
    <!-- Generator: Sketch 52.5 (67469) - http://www.bohemiancoding.com/sketch -->
    <title>Artboard</title>
    <desc>Created with Sketch.</desc>
    <defs>
        <filter x="-4.8%" y="-90.9%" width="109.6%" height="281.9%" filterUnits="objectBoundingBox" id="filter-1">
            <feGaussianBlur stdDeviation="10" in="SourceGraphic"></feGaussianBlur>
        </filter>
        <filter x="-3.8%" y="-91.0%" width="107.6%" height="281.9%" filterUnits="objectBoundingBox" id="filter-2">
            <feGaussianBlur stdDeviation="10" in="SourceGraphic"></feGaussianBlur>
        </filter>
        <filter x="-3.7%" y="-90.9%" width="107.4%" height="281.9%" filterUnits="objectBoundingBox" id="filter-3">
            <feGaussianBlur stdDeviation="10" in="SourceGraphic"></feGaussianBlur>
        </filter>
        <filter x="-4.8%" y="-91.0%" width="109.5%" height="282.0%" filterUnits="objectBoundingBox" id="filter-4">
            <feGaussianBlur stdDeviation="10" in="SourceGraphic"></feGaussianBlur>
        </filter>
        <filter x="-4.8%" y="-90.9%" width="109.6%" height="281.9%" filterUnits="objectBoundingBox" id="filter-5">
            <feGaussianBlur stdDeviation="10" in="SourceGraphic"></feGaussianBlur>
        </filter>
        <filter x="-4.2%" y="-6.7%" width="108.5%" height="113.5%" filterUnits="objectBoundingBox" id="filter-6">
            <feGaussianBlur stdDeviation="10" in="SourceGraphic"></feGaussianBlur>
        </filter>
        <filter x="-3.7%" y="-90.9%" width="107.4%" height="281.9%" filterUnits="objectBoundingBox" id="filter-7">
            <feGaussianBlur stdDeviation="10" in="SourceGraphic"></feGaussianBlur>
        </filter>
        <filter x="-5.6%" y="-8.7%" width="111.2%" height="117.4%" filterUnits="objectBoundingBox" id="filter-8">
            <feGaussianBlur stdDeviation="10" in="SourceGraphic"></feGaussianBlur>
        </filter>
        <filter x="-3.6%" y="-3.0%" width="107.3%" height="106.0%" filterUnits="objectBoundingBox" id="filter-9">
            <feGaussianBlur stdDeviation="10" in="SourceGraphic"></feGaussianBlur>
        </filter>
        <filter x="-5.9%" y="-7.3%" width="111.9%" height="114.6%" filterUnits="objectBoundingBox" id="filter-10">
            <feGaussianBlur stdDeviation="10" in="SourceGraphic"></feGaussianBlur>
        </filter>
    </defs>
    <g id="Artboard" stroke="none" stroke-width="1" fill="none" fill-rule="evenodd">
        <g id="Pineapple" transform="translate(0.000000, 14.000000)" fill="#FFFFFF">
            <g id="P-Blur">
                <polygon id="Rectangle" filter="url(#filter-1)" transform="translate(519.628601, 678.619589) rotate(31.125894) translate(-519.628601, -678.619589) " points="207.87432 662.123481 831.382012 662.13992 831.382882 695.115697 207.87519 695.099258"></polygon>
                <polygon id="Rectangle" filter="url(#filter-2)" transform="translate(457.474294, 879.121520) rotate(31.125894) translate(-457.474294, -879.121520) " points="63.1895181 862.629194 851.7582 862.649985 851.759069 895.613846 63.1903872 895.593055"></polygon>
                <polygon id="Rectangle" filter="url(#filter-3)" transform="translate(383.008615, 1069.660332) rotate(31.125894) translate(-383.008615, -1069.660332) " points="-23.6784745 1053.16569 789.694835 1053.18714 789.695704 1086.15497 -23.6776053 1086.13353"></polygon>
                <polygon id="Rectangle" filter="url(#filter-4)" transform="translate(285.800031, 1261.083305) rotate(31.125894) translate(-285.800031, -1261.083305) " points="-28.5896174 1244.59904 600.18881 1244.61562 600.189678 1277.56757 -28.5887487 1277.55099"></polygon>
                <polygon id="Rectangle" filter="url(#filter-5)" transform="translate(519.534474, 1262.533475) rotate(-31.125894) translate(-519.534474, -1262.533475) " points="207.785035 1246.05381 831.284783 1246.03737 831.283914 1279.01314 207.784166 1279.02958"></polygon>
                <polygon id="Path" filter="url(#filter-6)" points="788.408188 843.894009 95.7918033 1261.23054 112.856196 1289.47005 805.460656 872.129538"></polygon>
                <polygon id="Rectangle" filter="url(#filter-7)" transform="translate(373.311748, 879.233802) rotate(-31.125894) translate(-373.311748, -879.233802) " points="-33.3705002 862.760608 779.994865 862.739163 779.993996 895.706995 -33.3713694 895.72844"></polygon>
                <polygon id="Path" filter="url(#filter-8)" points="555.01324 513.087558 37.7770492 823.797479 43.56268 858.746544 572.052459 541.257829"></polygon>
                <path d="M690.437794,610.237747 C541.715812,410.024791 287.493092,411.540054 133.988643,608.496386 C39.5050847,729.697536 4.97344707,871.029462 0,1036.93878 C2.45489347,1058.94975 4.67504024,1096.12921 11.0251375,1132.58277 C43.1496267,1316.80218 193.379558,1454.32611 371.72737,1464.09995 C585.625381,1475.80158 746.677534,1372.98191 798.166637,1180.2223 C852.942193,975.193828 817.133374,780.772189 690.437794,610.237747 Z M765.568675,1163.19742 C718.420397,1340.86391 570.935808,1435.64713 375.081463,1424.84593 C211.765397,1415.82576 74.2038302,1289.08716 44.7928537,1119.28258 C38.9639737,1085.68501 36.9308285,1051.42501 34.6788517,1031.12367 C39.2424867,878.201175 70.857695,747.940184 157.367823,636.219339 C297.945288,454.681396 530.734441,453.293067 666.907422,637.821868 C782.924016,795.020415 815.720915,974.225964 765.568675,1163.19742 Z" id="Shape" filter="url(#filter-9)"></path>
                <path d="M557.088139,410.470046 C555.082677,410.470046 553.045381,410.121908 551.047877,409.370248 C504.16621,391.892158 456.695637,383.030474 409.94528,383.030474 C331.668574,383.030474 281.770755,408.266493 281.269389,408.519684 C276.824743,410.814228 271.556425,411.067419 266.920782,409.231784 C262.269223,407.372413 258.640291,403.610153 257.008863,398.890515 C225.359162,307.191864 173.161427,266.24218 172.648124,265.842613 C166.050789,260.762969 164.041348,251.707436 167.901067,244.356985 C171.736912,237.010491 180.331752,233.449992 188.270041,235.90278 C233.146246,249.804547 269.60667,263.979286 295.255899,274.906059 C250.84127,183.955113 202.153095,142.376407 201.588064,141.90563 C195.396596,136.707303 193.681607,127.928697 197.485619,120.799789 C201.265757,113.678792 209.546248,110.153899 217.341291,112.309979 C294.90176,133.831212 339.511365,170.175985 363.561,197.544347 L401.278817,13.7039616 C402.918203,5.72448973 409.981092,0 418.170064,0 L418.237709,0 C426.458514,0.0395610901 433.517424,5.843173 435.077228,13.8582498 L472.361324,204.550616 C525.191734,143.13598 633.761271,99.3141605 648.352603,93.6134074 C655.42345,90.8520433 663.397551,93.0081227 668.104818,98.859208 C672.824021,104.710293 673.162244,112.950868 668.92849,119.169872 L570.123646,264.220608 C608.505971,247.06692 646.474471,233.995936 649.044965,233.121635 C656.983254,230.419613 665.713383,233.750657 669.752162,241.05759 C673.798899,248.356611 671.968517,257.491267 665.41893,262.689594 C610.670598,306.25031 573.505874,398.684797 573.127861,399.618439 C570.45789,406.343824 563.96799,410.470046 557.088139,410.470046 Z M409.949259,348.77057 C455.669031,348.77057 501.918023,356.516631 547.641774,371.814905 C555.914307,353.676145 571.599889,322.110351 593.262068,291.494024 C567.907291,302.389148 541.525909,315.242546 526.317817,327.047575 C519.628963,332.222166 510.138828,331.818643 503.955318,326.054592 C497.743955,320.298453 496.689495,310.914563 501.436552,303.939943 L605.720607,150.854349 C554.824036,177.118956 493.311246,216.953018 480.383174,256.727738 C477.967865,264.153354 470.88906,269.07871 462.934854,268.552548 C455.100021,268.077815 448.578289,262.396842 447.066234,254.721991 L417.75226,104.832933 L389.230125,243.933681 C387.714091,251.284132 381.562414,256.798948 374.053867,257.550609 C366.545319,258.290401 359.410807,254.100881 356.474236,247.173735 C355.53517,245.037436 336.471339,203.553677 272.224912,170.148292 C294.822178,200.653849 321.880007,244.542922 345.476025,303.208063 C348.161912,309.874106 346.379279,317.481704 341.015462,322.288376 C335.659604,327.106917 327.844666,328.068252 321.462202,324.733252 C321.060314,324.523578 290.803295,308.829693 239.954473,289.777073 C254.358787,310.08378 269.928976,336.775648 283.215166,370.45796 C306.34563,361.742651 350.732406,348.77057 409.949259,348.77057 Z" id="Shape" fill-rule="nonzero" filter="url(#filter-10)"></path>
            </g>
            <g id="P">
                <polygon id="Rectangle-Copy-6" transform="translate(519.628601, 678.619589) rotate(31.125894) translate(-519.628601, -678.619589) " points="207.87432 662.123481 831.382012 662.13992 831.382882 695.115697 207.87519 695.099258"></polygon>
                <polygon id="Rectangle-Copy-5" transform="translate(457.474294, 879.121520) rotate(31.125894) translate(-457.474294, -879.121520) " points="63.1895181 862.629194 851.7582 862.649985 851.759069 895.613846 63.1903872 895.593055"></polygon>
                <polygon id="Rectangle-Copy-4" transform="translate(383.008615, 1069.660332) rotate(31.125894) translate(-383.008615, -1069.660332) " points="-23.6784745 1053.16569 789.694835 1053.18714 789.695704 1086.15497 -23.6776053 1086.13353"></polygon>
                <polygon id="Rectangle-Copy-3" transform="translate(285.800031, 1261.083305) rotate(31.125894) translate(-285.800031, -1261.083305) " points="-28.5896174 1244.59904 600.18881 1244.61562 600.189678 1277.56757 -28.5887487 1277.55099"></polygon>
                <polygon id="Rectangle-Copy-2" transform="translate(519.534474, 1262.533475) rotate(-31.125894) translate(-519.534474, -1262.533475) " points="207.785035 1246.05381 831.284783 1246.03737 831.283914 1279.01314 207.784166 1279.02958"></polygon>
                <polygon id="Path-Copy-2" points="788.408188 843.894009 95.7918033 1261.23054 112.856196 1289.47005 805.460656 872.129538"></polygon>
                <polygon id="Rectangle-Copy" transform="translate(373.311748, 879.233802) rotate(-31.125894) translate(-373.311748, -879.233802) " points="-33.3705002 862.760608 779.994865 862.739163 779.993996 895.706995 -33.3713694 895.72844"></polygon>
                <polygon id="Path-Copy" points="555.01324 513.087558 37.7770492 823.797479 43.56268 858.746544 572.052459 541.257829"></polygon>
                <path d="M690.437794,610.237747 C541.715812,410.024791 287.493092,411.540054 133.988643,608.496386 C39.5050847,729.697536 4.97344707,871.029462 0,1036.93878 C2.45489347,1058.94975 4.67504024,1096.12921 11.0251375,1132.58277 C43.1496267,1316.80218 193.379558,1454.32611 371.72737,1464.09995 C585.625381,1475.80158 746.677534,1372.98191 798.166637,1180.2223 C852.942193,975.193828 817.133374,780.772189 690.437794,610.237747 Z M765.568675,1163.19742 C718.420397,1340.86391 570.935808,1435.64713 375.081463,1424.84593 C211.765397,1415.82576 74.2038302,1289.08716 44.7928537,1119.28258 C38.9639737,1085.68501 36.9308285,1051.42501 34.6788517,1031.12367 C39.2424867,878.201175 70.857695,747.940184 157.367823,636.219339 C297.945288,454.681396 530.734441,453.293067 666.907422,637.821868 C782.924016,795.020415 815.720915,974.225964 765.568675,1163.19742 Z" id="Shape-Copy-2"></path>
                <path d="M557.088139,410.470046 C555.082677,410.470046 553.045381,410.121908 551.047877,409.370248 C504.16621,391.892158 456.695637,383.030474 409.94528,383.030474 C331.668574,383.030474 281.770755,408.266493 281.269389,408.519684 C276.824743,410.814228 271.556425,411.067419 266.920782,409.231784 C262.269223,407.372413 258.640291,403.610153 257.008863,398.890515 C225.359162,307.191864 173.161427,266.24218 172.648124,265.842613 C166.050789,260.762969 164.041348,251.707436 167.901067,244.356985 C171.736912,237.010491 180.331752,233.449992 188.270041,235.90278 C233.146246,249.804547 269.60667,263.979286 295.255899,274.906059 C250.84127,183.955113 202.153095,142.376407 201.588064,141.90563 C195.396596,136.707303 193.681607,127.928697 197.485619,120.799789 C201.265757,113.678792 209.546248,110.153899 217.341291,112.309979 C294.90176,133.831212 339.511365,170.175985 363.561,197.544347 L401.278817,13.7039616 C402.918203,5.72448973 409.981092,0 418.170064,0 L418.237709,0 C426.458514,0.0395610901 433.517424,5.843173 435.077228,13.8582498 L472.361324,204.550616 C525.191734,143.13598 633.761271,99.3141605 648.352603,93.6134074 C655.42345,90.8520433 663.397551,93.0081227 668.104818,98.859208 C672.824021,104.710293 673.162244,112.950868 668.92849,119.169872 L570.123646,264.220608 C608.505971,247.06692 646.474471,233.995936 649.044965,233.121635 C656.983254,230.419613 665.713383,233.750657 669.752162,241.05759 C673.798899,248.356611 671.968517,257.491267 665.41893,262.689594 C610.670598,306.25031 573.505874,398.684797 573.127861,399.618439 C570.45789,406.343824 563.96799,410.470046 557.088139,410.470046 Z M409.949259,348.77057 C455.669031,348.77057 501.918023,356.516631 547.641774,371.814905 C555.914307,353.676145 571.599889,322.110351 593.262068,291.494024 C567.907291,302.389148 541.525909,315.242546 526.317817,327.047575 C519.628963,332.222166 510.138828,331.818643 503.955318,326.054592 C497.743955,320.298453 496.689495,310.914563 501.436552,303.939943 L605.720607,150.854349 C554.824036,177.118956 493.311246,216.953018 480.383174,256.727738 C477.967865,264.153354 470.88906,269.07871 462.934854,268.552548 C455.100021,268.077815 448.578289,262.396842 447.066234,254.721991 L417.75226,104.832933 L389.230125,243.933681 C387.714091,251.284132 381.562414,256.798948 374.053867,257.550609 C366.545319,258.290401 359.410807,254.100881 356.474236,247.173735 C355.53517,245.037436 336.471339,203.553677 272.224912,170.148292 C294.822178,200.653849 321.880007,244.542922 345.476025,303.208063 C348.161912,309.874106 346.379279,317.481704 341.015462,322.288376 C335.659604,327.106917 327.844666,328.068252 321.462202,324.733252 C321.060314,324.523578 290.803295,308.829693 239.954473,289.777073 C254.358787,310.08378 269.928976,336.775648 283.215166,370.45796 C306.34563,361.742651 350.732406,348.77057 409.949259,348.77057 Z" id="Shape-Copy" fill-rule="nonzero"></path>
            </g>
        </g>
    </g>
</svg>